HIERARCHY
ROOT Hips
{
  OFFSET 5.72205e-005 65.662 3.42586
  CHANNELS 6 Xposition Yposition Zposition Zrotation Xrotation Yrotation
  JOINT Chest
  {
    OFFSET 0 8.7983 -4.7612
    CHANNELS 3 Zrotation Xrotation Yrotation
    JOINT Chest2
    {
      OFFSET 0 8.0291 0.4195
      CHANNELS 3 Zrotation Xrotation Yrotation
      JOINT Chest3
      {
        OFFSET 0 9.9351 -2.2114
        CHANNELS 3 Zrotation Xrotation Yrotation
        JOINT Neck
        {
          OFFSET 0 22.3885 -0.4656
          CHANNELS 3 Zrotation Xrotation Yrotation
          JOINT Head
          {
            OFFSET -0.0001 12.643 3.4389
            CHANNELS 3 Zrotation Xrotation Yrotation
            End Site
            {
              OFFSET 0.0001 17.6655 0.5274
            }
          }
        }
        JOINT LeftCollar
        {
          OFFSET 2.2603 21.606 7.4023
          CHANNELS 3 Zrotation Xrotation Yrotation
          JOINT LeftShoulder
          {
            OFFSET 13.5163 -1.1332 -5.0146
            CHANNELS 3 Zrotation Xrotation Yrotation
            JOINT LeftElbow
            {
              OFFSET -0.0995 -28.05 -0.2431
              CHANNELS 3 Zrotation Xrotation Yrotation
              JOINT LeftWrist
              {
                OFFSET 0.0679 -23.3996 -0.1402
                CHANNELS 3 Zrotation Xrotation Yrotation
                JOINT LeftFinger1
                {
                  OFFSET 0.7932 -9.069 2.5189
                  CHANNELS 3 Zrotation Xrotation Yrotation
                  JOINT LeftFinger11
                  {
                    OFFSET -0.8272 -3.3923 0.5977
                    CHANNELS 3 Zrotation Xrotation Yrotation
                    JOINT LeftFinger12
                    {
                      OFFSET -0.5649 -2.3158 0.4082
                      CHANNELS 3 Zrotation Xrotation Yrotation
                      End Site
                      {
                        OFFSET -0.4919 -1.6479 0.2673
                      }
                    }
                  }
                }
                JOINT LeftFinger2
                {
                  OFFSET 0.9159 -9.2044 0.2193
                  CHANNELS 3 Zrotation Xrotation Yrotation
                  JOINT LeftFinger21
                  {
                    OFFSET 0.0117 -4.1944 -0.0248
                    CHANNELS 3 Zrotation Xrotation Yrotation
                    JOINT LeftFinger22
                    {
                      OFFSET 0.0071 -2.3249 -0.0142
                      CHANNELS 3 Zrotation Xrotation Yrotation
                      End Site
                      {
                        OFFSET -0.1475 -2.0882 0.0028
                      }
                    }
                  }
                }
                JOINT LeftFinger3
                {
                  OFFSET 0.6113 -8.7231 -2.0637
                  CHANNELS 3 Zrotation Xrotation Yrotation
                  JOINT LeftFinger31
                  {
                    OFFSET -0.1927 -3.8059 -0.2383
                    CHANNELS 3 Zrotation Xrotation Yrotation
                    JOINT LeftFinger32
                    {
                      OFFSET -0.1091 -2.1688 -0.1362
                      CHANNELS 3 Zrotation Xrotation Yrotation
                      End Site
                      {
                        OFFSET -0.2358 -1.9176 -0.0906
                      }
                    }
                  }
                }
                JOINT LeftFinger4
                {
                  OFFSET -0.6151 -8.0947 -3.5641
                  CHANNELS 3 Zrotation Xrotation Yrotation
                  JOINT LeftFinger41
                  {
                    OFFSET -0.4882 -2.341 -0.6462
                    CHANNELS 3 Zrotation Xrotation Yrotation
                    JOINT LeftFinger42
                    {
                      OFFSET -0.3575 -1.7167 -0.4742
                      CHANNELS 3 Zrotation Xrotation Yrotation
                      End Site
                      {
                        OFFSET -0.4187 -1.5237 -0.3496
                      }
                    }
                  }
                }
                JOINT LeftFinger0
                {
                  OFFSET -1.42 -1.8761 1.4223
                  CHANNELS 3 Zrotation Xrotation Yrotation
                  JOINT LeftFinger01
                  {
                    OFFSET -1.1471 -3.4929 2.6334
                    CHANNELS 3 Zrotation Xrotation Yrotation
                    JOINT LeftFinger02
                    {
                      OFFSET -0.823 -2.3 1.6571
                      CHANNELS 3 Zrotation Xrotation Yrotation
                      End Site
                      {
                        OFFSET -0.5822 -1.6914 1.1582
                      }
                    }
                  }
                }
              }
            }
          }
        }
        JOINT RightCollar
        {
          OFFSET -2.2603 21.606 7.4023
          CHANNELS 3 Zrotation Xrotation Yrotation
          JOINT RightShoulder
          {
            OFFSET -13.5187 -1.1334 -5.0155
            CHANNELS 3 Zrotation Xrotation Yrotation
            JOINT RightElbow
            {
              OFFSET 0.0994 -28.0499 -0.2431
              CHANNELS 3 Zrotation Xrotation Yrotation
              JOINT RightWrist
              {
                OFFSET -0.0679 -23.3996 -0.1402
                CHANNELS 3 Zrotation Xrotation Yrotation
                JOINT RightFinger1
                {
                  OFFSET -0.7932 -9.0691 2.5189
                  CHANNELS 3 Zrotation Xrotation Yrotation
                  JOINT RightFinger11
                  {
                    OFFSET 0.8272 -3.3923 0.5977
                    CHANNELS 3 Zrotation Xrotation Yrotation
                    JOINT RightFinger12
                    {
                      OFFSET 0.565 -2.3158 0.4082
                      CHANNELS 3 Zrotation Xrotation Yrotation
                      End Site
                      {
                        OFFSET 0.4919 -1.6479 0.2673
                      }
                    }
                  }
                }
                JOINT RightFinger2
                {
                  OFFSET -0.916 -9.2044 0.2193
                  CHANNELS 3 Zrotation Xrotation Yrotation
                  JOINT RightFinger21
                  {
                    OFFSET -0.0117 -4.1944 -0.0248
                    CHANNELS 3 Zrotation Xrotation Yrotation
                    JOINT RightFinger22
                    {
                      OFFSET -0.0071 -2.3249 -0.0142
                      CHANNELS 3 Zrotation Xrotation Yrotation
                      End Site
                      {
                        OFFSET 0.1475 -2.0882 0.0028
                      }
                    }
                  }
                }
                JOINT RightFinger3
                {
                  OFFSET -0.6113 -8.7231 -2.0637
                  CHANNELS 3 Zrotation Xrotation Yrotation
                  JOINT RightFinger31
                  {
                    OFFSET 0.1927 -3.8059 -0.2383
                    CHANNELS 3 Zrotation Xrotation Yrotation
                    JOINT RightFinger32
                    {
                      OFFSET 0.1091 -2.1688 -0.1362
                      CHANNELS 3 Zrotation Xrotation Yrotation
                      End Site
                      {
                        OFFSET 0.2358 -1.9176 -0.0906
                      }
                    }
                  }
                }
                JOINT RightFinger4
                {
                  OFFSET 0.6151 -8.0947 -3.564
                  CHANNELS 3 Zrotation Xrotation Yrotation
                  JOINT RightFinger41
                  {
                    OFFSET 0.4882 -2.341 -0.6462
                    CHANNELS 3 Zrotation Xrotation Yrotation
                    JOINT RightFinger42
                    {
                      OFFSET 0.3574 -1.7166 -0.4742
                      CHANNELS 3 Zrotation Xrotation Yrotation
                      End Site
                      {
                        OFFSET 0.4187 -1.5237 -0.3496
                      }
                    }
                  }
                }
                JOINT RightFinger0
                {
                  OFFSET 1.4199 -1.8761 1.4221
                  CHANNELS 3 Zrotation Xrotation Yrotation
                  JOINT RightFinger01
                  {
                    OFFSET 1.1472 -3.4929 2.6336
                    CHANNELS 3 Zrotation Xrotation Yrotation
                    JOINT RightFinger02
                    {
                      OFFSET 0.8229 -2.3 1.6571
                      CHANNELS 3 Zrotation Xrotation Yrotation
                      End Site
                      {
                        OFFSET 0.5822 -1.6914 1.1582
                      }
                    }
                  }
                }
              }
            }
          }
        }
      }
    }
  }
  JOINT RightHip
  {
    OFFSET -9.412 3.9771 -0.7758
    CHANNELS 3 Zrotation Xrotation Yrotation
    JOINT RightKnee
    {
      OFFSET -0.7531 -40.938 0
      CHANNELS 3 Zrotation Xrotation Yrotation
      JOINT RightAnkle
      {
        OFFSET 0 -40.1986 0
        CHANNELS 3 Zrotation Xrotation Yrotation
        JOINT RightToe
        {
          OFFSET 0 -4.4182 9.239
          CHANNELS 3 Zrotation Xrotation Yrotation
          End Site
          {
            OFFSET 0 0 6.1981
          }
        }
      }
    }
  }
  JOINT LeftHip
  {
    OFFSET 9.4119 3.9773 -0.7758
    CHANNELS 3 Zrotation Xrotation Yrotation
    JOINT LeftKnee
    {
      OFFSET 0.7532 -40.9383 0
      CHANNELS 3 Zrotation Xrotation Yrotation
      JOINT LeftAnkle
      {
        OFFSET 0 -40.1986 0
        CHANNELS 3 Zrotation Xrotation Yrotation
        JOINT LeftToe
        {
          OFFSET 0 -4.4182 9.239
          CHANNELS 3 Zrotation Xrotation Yrotation
          End Site
          {
            OFFSET 0 0 6.1981
          }
        }
      }
    }
  }
}
MOTION
Frames:	6
Frame Time:	0.0333333
0.00360155 4.14782 11.9435 5.50089e-008 -82.0004 8.1393e-008 -0.0104386 -4.68223 -0.153572 -0.0336883 -9.36448 -0.309563 -0.0336884 -9.3645 -0.309564 -7.33027 30.1255 -1.30713 14.9913 -10.9819 6.05854 -14.3986 19.771 -4.06851 35.2849 -45.7239 32.4777 -13.9271 2.68828 -35.2447 -44.6025 14.6426 25.0716 -9.54166e-015 -3.18055e-015 -3.18055e-015 3.18055e-015 0 -1.59028e-015 3.18055e-015 0 -0 -9.54166e-015 -3.18055e-015 -3.18055e-015 -0.012835 0.00232994 7.96435e-005 -2.64834e-031 9.54166e-015 1.59028e-015 -9.54166e-015 -3.18055e-015 -3.18055e-015 -0.0160504 0.00300116 0.000857027 -6.36111e-015 3.18055e-015 -4.77083e-015 -9.54166e-015 -3.18055e-015 -3.18055e-015 -0.0125828 0.00312147 0.00282542 -3.18055e-015 9.54166e-015 -1.59028e-015 -9.54166e-015 -3.18055e-015 -3.18055e-015 3.18055e-015 0 -1.59028e-015 3.18055e-015 0 -0 13.3871 19.9796 -1.26087 -30.0513 -47.3614 -26.118 12.9231 2.4858 35.4501 44.97 15.2842 -23.9726 1.76556e-031 1.59028e-015 -6.36111e-015 3.18055e-015 6.36111e-015 -1.59028e-015 6.36111e-015 6.36111e-015 -7.95139e-015 1.76556e-031 1.59028e-015 -6.36111e-015 0.0129648 0.00232547 -8.3202e-005 3.18055e-015 -1.59028e-015 -0 1.76556e-031 1.59028e-015 -6.36111e-015 0.0163354 0.00303689 -0.000867729 -3.18055e-015 4.77083e-015 4.77083e-015 1.76556e-031 1.59028e-015 -6.36111e-015 0.0145752 0.00368577 -0.0032651 6.36111e-015 3.18055e-015 -4.77083e-015 1.76556e-031 1.59028e-015 -6.36111e-015 3.18055e-015 6.36111e-015 -1.59028e-015 6.36111e-015 6.36111e-015 -7.95139e-015 -14.2701 -14.6001 -44.5607 -2.08811 50.9901 0.898769 0.533048 11.4204 -5.3224 5.67441e-007 2.05813e-006 6.18058e-007 15.1832 -13.8523 46.8171 2.08336 50.9661 -0.876859 1.05763 11.3812 3.07062 -4.47152e-006 2.98852e-006 5.64573e-006 
0.00345085 4.09115 11.9443 3.54023e-007 -82.0004 2.72511e-007 -0.0108738 -4.5971 -0.153561 -0.0343216 -9.19418 -0.309503 -0.0343218 -9.19421 -0.309504 -7.33027 30.1255 -1.30712 15.0534 -10.8255 6.07347 -14.4635 19.4732 -4.31152 35.4824 -45.633 32.6224 -13.9101 2.68533 -35.2455 -44.6025 14.6425 25.0717 -3.33978e-007 8.84031e-006 6.70847e-006 3.33977e-007 -8.84031e-006 -6.70847e-006 3.18055e-015 0 7.95139e-015 -3.33978e-007 8.84031e-006 6.70847e-006 -0.0128269 0.0023147 7.31657e-005 -9.54166e-015 0 7.95139e-015 -3.33978e-007 8.84031e-006 6.70847e-006 -0.0160232 0.00298381 0.000853288 0 0 -1.59028e-015 -3.33978e-007 8.84031e-006 6.70847e-006 -0.0125705 0.0031177 0.00281628 -3.18055e-015 3.18055e-015 -4.77083e-015 -3.33978e-007 8.84031e-006 6.70847e-006 3.33977e-007 -8.84031e-006 -6.70847e-006 3.18055e-015 0 7.95139e-015 13.4587 19.6822 -1.01387 -30.2731 -47.2849 -26.2887 12.9229 2.48585 35.4501 44.97 15.2842 -23.9725 6.36111e-015 1.59028e-015 -4.77083e-015 9.54166e-015 -1.59028e-015 -7.95139e-015 3.18055e-015 1.59028e-015 -1.59028e-015 6.36111e-015 1.59028e-015 -4.77083e-015 0.0129324 0.002315 -8.7748e-005 9.54166e-015 -4.77083e-015 -0 6.36111e-015 1.59028e-015 -4.77083e-015 0.0163233 0.00304277 -0.000881095 1.27222e-014 1.59028e-015 -3.18055e-015 6.36111e-015 1.59028e-015 -4.77083e-015 0.0145907 0.00368948 -0.00326571 3.18055e-015 -3.18055e-015 -7.95139e-015 6.36111e-015 1.59028e-015 -4.77083e-015 9.54166e-015 -1.59028e-015 -7.95139e-015 3.18055e-015 1.59028e-015 -1.59028e-015 -14.4035 -14.6126 -44.8869 -2.08815 50.9939 0.895365 0.30237 11.4398 -5.04453 -8.9118e-006 5.72737e-006 4.87384e-006 15.2671 -13.9005 47.0234 2.08369 50.9713 -0.87484 1.20449 11.3962 2.91121 2.61442e-006 2.03871e-006 -1.17877e-005 
0.00329541 4.03448 11.9451 -6.43098e-009 -82.0004 -5.15925e-010 -0.0113088 -4.51192 -0.153547 -0.0349541 -9.02383 -0.309438 -0.0349543 -9.02386 -0.309439 -7.33027 30.1255 -1.30713 15.1155 -10.6692 6.08822 -14.5295 19.1755 -4.55447 35.679 -45.5419 32.7662 -13.8929 2.68241 -35.2463 -44.6025 14.6425 25.0717 8.20795e-006 5.92586e-006 1.17808e-005 -2.64834e-031 3.18055e-015 4.77083e-015 3.18055e-015 6.36111e-015 -1.59028e-015 8.20795e-006 5.92586e-006 1.17808e-005 -0.0127913 0.00231755 8.3721e-005 0 3.18055e-015 -0 8.20795e-006 5.92586e-006 1.17808e-005 -0.016066 0.00300809 0.000858735 -6.36111e-015 0 6.36111e-015 8.20795e-006 5.92586e-006 1.17808e-005 -0.0126019 0.00312339 0.00283455 -6.36111e-015 -3.18055e-015 1.59028e-015 8.20795e-006 5.92586e-006 1.17808e-005 -2.64834e-031 3.18055e-015 4.77083e-015 3.18055e-015 6.36111e-015 -1.59028e-015 13.5314 19.3849 -0.76693 -30.4944 -47.2079 -26.4589 12.923 2.48586 35.4501 44.97 15.2842 -23.9726 3.58989e-006 1.47637e-006 8.46463e-006 -3.18055e-015 3.18055e-015 1.11319e-014 -9.54166e-015 1.59028e-015 9.54166e-015 3.58989e-006 1.47637e-006 8.46463e-006 0.0129515 0.00231157 -7.94199e-005 -3.18055e-015 -1.59028e-015 -1.59028e-015 3.58989e-006 1.47637e-006 8.46463e-006 0.0163331 0.00303109 -0.000873079 3.18055e-015 -1.59028e-015 1.59028e-015 3.58989e-006 1.47637e-006 8.46463e-006 0.0145872 0.00367539 -0.00326158 -6.36111e-015 7.95139e-015 -9.54166e-015 3.58989e-006 1.47637e-006 8.46463e-006 -3.18055e-015 3.18055e-015 1.11319e-014 -9.54166e-015 1.59028e-015 9.54166e-015 -14.5371 -14.6245 -45.2132 -2.0883 50.9977 0.891995 0.0716011 11.4581 -4.76658 1.13796e-006 6.36111e-015 1.23352e-006 15.3512 -13.9484 47.2299 2.08392 50.9765 -0.872846 1.35147 11.4109 2.75175 -2.10401e-006 -2.19262e-007 1.59816e-006 
0.00313525 3.97781 11.946 1.80415e-007 -82.0004 2.47663e-007 -0.011743 -4.42677 -0.153531 -0.0355855 -8.85354 -0.309368 -0.0355856 -8.85353 -0.309369 -7.33026 30.1255 -1.30714 15.1774 -10.5129 6.10281 -14.5968 18.8782 -4.79733 35.8751 -45.4504 32.9094 -13.8758 2.67947 -35.247 -44.6025 14.6424 25.0717 -1.90833e-014 0 -6.36111e-015 1.67662e-006 -1.26613e-006 2.55233e-006 -3.18055e-015 -3.18055e-015 4.77083e-015 -1.90833e-014 0 -6.36111e-015 -0.0128558 0.00232812 8.81258e-005 -3.18055e-015 0 1.59028e-015 -1.90833e-014 0 -6.36111e-015 -0.016066 0.00300495 0.000860948 6.36111e-015 6.36111e-015 4.77083e-015 -1.90833e-014 0 -6.36111e-015 -0.0125648 0.00312343 0.00282877 -1.27222e-014 0 -1.59028e-015 -1.90833e-014 0 -6.36111e-015 1.67662e-006 -1.26613e-006 2.55233e-006 -3.18055e-015 -3.18055e-015 4.77083e-015 13.6054 19.088 -0.520058 -30.7149 -47.1305 -26.6282 12.9229 2.48581 35.4501 44.97 15.2842 -23.9726 1.76556e-031 -3.18055e-015 3.18055e-015 -8.96697e-006 -2.22503e-006 -3.42299e-006 3.18055e-015 7.95139e-015 -0 1.76556e-031 -3.18055e-015 3.18055e-015 0.0129411 0.00230218 -8.05925e-005 -3.18055e-015 0 1.59028e-015 1.76556e-031 -3.18055e-015 3.18055e-015 0.0163196 0.00302879 -0.000875126 0 0 -1.59028e-015 1.76556e-031 -3.18055e-015 3.18055e-015 0.0146081 0.00368937 -0.00327725 2.83182e-006 -5.10067e-007 -9.58871e-007 1.76556e-031 -3.18055e-015 3.18055e-015 -8.96697e-006 -2.22503e-006 -3.42299e-006 3.18055e-015 7.95139e-015 -0 -14.6707 -14.6358 -45.5396 -2.08853 51.0017 0.888666 -0.159285 11.4752 -4.48856 4.32345e-006 -8.51909e-007 1.19185e-006 15.4356 -13.996 47.4365 2.08419 50.9817 -0.870847 1.49844 11.4252 2.59227 -5.70211e-007 4.51169e-006 -6.14966e-007 
0.00297115 3.92113 11.9468 6.12567e-008 -82.0004 7.38724e-008 -0.0121772 -4.34163 -0.153514 -0.0362164 -8.68323 -0.309295 -0.0362166 -8.68326 -0.309296 -7.33027 30.1255 -1.30713 15.2393 -10.3565 6.11719 -14.6653 18.5812 -5.04009 36.0708 -45.3585 33.0521 -13.8589 2.67652 -35.2478 -44.6025 14.6424 25.0718 -1.27222e-014 0 -4.77083e-015 -1.33022e-005 1.46573e-006 -4.77004e-007 6.36111e-015 4.77083e-015 -1.59028e-015 -1.27222e-014 0 -4.77083e-015 -0.0127956 0.00231227 7.89261e-005 -3.18055e-015 3.18055e-015 6.36111e-015 -1.27222e-014 0 -4.77083e-015 -0.0160573 0.00298688 0.000848346 9.54166e-015 -1.59028e-015 1.59028e-015 -1.27222e-014 0 -4.77083e-015 -0.0125805 0.00312219 0.00282256 -1.32417e-031 1.59028e-015 4.77083e-015 -1.27222e-014 0 -4.77083e-015 -1.33022e-005 1.46573e-006 -4.77004e-007 6.36111e-015 4.77083e-015 -1.59028e-015 13.6805 18.7914 -0.273252 -30.935 -47.0526 -26.797 12.9229 2.48582 35.4501 44.97 15.2842 -23.9726 3.30438e-006 1.18298e-005 5.02723e-007 4.06228e-007 -8.13916e-006 9.53811e-006 3.18055e-015 -6.36111e-015 -0 3.30438e-006 1.18298e-005 5.02723e-007 0.0129636 0.00231418 -8.49779e-005 1.27222e-014 -1.59028e-015 -6.36111e-015 3.30438e-006 1.18298e-005 5.02723e-007 0.0163319 0.00302458 -0.000866748 -1.75311e-006 1.11106e-005 5.85722e-007 3.30438e-006 1.18298e-005 5.02723e-007 0.0145932 0.00367116 -0.00324878 -6.36111e-015 1.43125e-014 3.18055e-015 3.30438e-006 1.18298e-005 5.02723e-007 4.06228e-007 -8.13916e-006 9.53811e-006 3.18055e-015 -6.36111e-015 -0 -14.8045 -14.6464 -45.866 -2.08882 51.0057 0.885381 -0.3902 11.4912 -4.2105 -4.28642e-006 1.10477e-006 -1.28828e-006 15.5202 -14.0436 47.6432 2.08461 50.9871 -0.868887 1.64546 11.439 2.43273 2.64014e-006 -3.57571e-006 -7.68904e-007 
0.00280234 3.86445 11.9476 -2.00916e-007 -82.0004 -1.99386e-007 -0.0126108 -4.25649 -0.153494 -0.0368464 -8.513 -0.309217 -0.0368464 -8.513 -0.309218 -7.33027 30.1255 -1.30713 15.3011 -10.2002 6.13141 -14.735 18.2845 -5.28277 36.2659 -45.2661 33.1942 -13.8421 2.67354 -35.2487 -44.6025 14.6423 25.0719 -6.36111e-015 0 3.18055e-015 0 0 -3.18055e-015 -1.27222e-014 1.59028e-015 -4.77083e-015 -6.36111e-015 0 3.18055e-015 -0.0128318 0.00232359 8.12723e-005 2.28894e-006 4.72332e-007 -4.96351e-007 -6.36111e-015 0 3.18055e-015 -0.0160374 0.00301001 0.000845853 -1.06455e-005 -1.99882e-005 -3.64587e-006 -6.36111e-015 0 3.18055e-015 -0.0125944 0.00313059 0.00282521 -7.62655e-006 -2.25124e-007 -1.04576e-006 -6.36111e-015 0 3.18055e-015 0 0 -3.18055e-015 -1.27222e-014 1.59028e-015 -4.77083e-015 13.7569 18.4953 -0.0265 -31.1542 -46.9744 -26.9651 12.9229 2.48584 35.4501 44.97 15.2842 -23.9726 1.32417e-030 -9.54166e-015 7.95139e-015 2.64834e-031 -4.77083e-015 3.18055e-015 -6.36111e-015 0 1.59028e-015 1.32417e-030 -9.54166e-015 7.95139e-015 0.0129779 0.00232814 -8.34948e-005 2.64736e-006 -1.57026e-006 -2.476e-006 1.32417e-030 -9.54166e-015 7.95139e-015 0.0163038 0.00303494 -0.000867673 -9.54166e-015 0 6.36111e-015 1.32417e-030 -9.54166e-015 7.95139e-015 0.0145804 0.00367447 -0.00326157 -1.2847e-006 9.93936e-007 2.03858e-006 1.32417e-030 -9.54166e-015 7.95139e-015 2.64834e-031 -4.77083e-015 3.18055e-015 -6.36111e-015 0 1.59028e-015 -14.9383 -14.6562 -46.1924 -2.0891 51.0096 0.882048 -0.621195 11.5063 -3.9324 6.09785e-007 5.92052e-006 5.13906e-007 15.605 -14.0906 47.85 2.08487 50.9923 -0.866898 1.79255 11.4525 2.27316 4.6674e-006 -6.27289e-006 -1.94803e-006 
